<svg width="706" height="700" viewBox="0 0 706 700" fill="none" xmlns="http://www.w3.org/2000/svg">
<path d="M60.2404 243.607C80.6295 217.359 99.8153 202.096 132.939 199.356C162.671 196.897 192.168 197.346 205.185 224.191C219.107 252.9 195.336 276.686 172.674 299.147C146.295 325.292 119.432 336.534 82.8174 330.303C62.6746 326.875 45.4201 325.987 35.4056 308.177C22.1637 284.628 43.6665 264.943 60.2404 243.607Z" fill="#2E7D45"/>
<path d="M208.877 330.303C225.821 312.787 236.996 290.942 260.877 295.803C276.776 299.04 285.152 308.035 292.877 322.303C308.286 350.763 292.77 383.889 264.877 400.303C243.667 412.785 224.033 412.516 201.877 401.803C190.51 396.307 182.039 392.825 176.877 381.303C167.263 359.845 192.529 347.202 208.877 330.303Z" fill="#2E7D45"/>
<path d="M325.884 409.714C330.904 381.255 337.121 362.965 358.109 343.099C380.081 322.303 415.062 330.836 459.267 331.902C515.524 333.259 597.301 373.262 597.301 373.262L689.964 435.832C689.964 435.832 656.126 472.187 630.464 490.589C593.089 517.39 569.815 535.952 524.124 541.195C474.461 546.894 446.766 527.629 399.961 510.073C366.255 497.431 340.686 494.362 326.714 461.186C318.912 442.658 322.392 429.512 325.884 409.714Z" fill="#2E7D45"/>
<path d="M95.8769 179.25C95.8769 179.25 81.6463 144.129 82.8174 120.75C84.795 81.2735 120.318 65.25 120.318 65.25M43.3769 203.75C43.3769 203.75 13.0035 163.54 10.3174 133.25C6.52588 90.4947 42.3176 65.25 42.3176 65.25M151.377 430.75C151.377 430.75 109.87 461.013 106.317 489.803C103.698 511.03 120.317 542.75 120.317 542.75M231.377 460.803C231.377 460.803 208.037 485.713 201.877 505.803C193.43 533.35 208.877 579.25 208.877 579.25M309.377 489.803C309.377 489.803 296.568 517.983 292.877 537.25C285.679 574.823 298.667 596.674 302.377 634.75M132.939 199.356C99.8153 202.096 80.6295 217.359 60.2404 243.607C43.6664 264.943 22.1637 284.628 35.4056 308.177C45.4201 325.987 62.6746 326.875 82.8174 330.303C119.432 336.534 146.295 325.292 172.674 299.147C195.336 276.686 219.107 252.9 205.185 224.191C192.168 197.346 162.671 196.897 132.939 199.356ZM260.877 295.803C236.996 290.942 225.821 312.787 208.877 330.303C192.529 347.202 167.263 359.845 176.877 381.303C182.039 392.825 190.51 396.307 201.877 401.803C224.033 412.516 243.667 412.785 264.877 400.303C292.77 383.889 308.286 350.763 292.877 322.303C285.152 308.035 276.776 299.04 260.877 295.803ZM358.109 343.099C337.121 362.965 330.904 381.255 325.884 409.714C322.392 429.512 318.912 442.658 326.714 461.186C340.686 494.362 366.255 497.431 399.961 510.073C446.766 527.629 474.461 546.894 524.124 541.195C569.815 535.952 593.089 517.39 630.464 490.589C656.126 472.187 689.964 435.832 689.964 435.832C653.777 411.397 633.488 397.697 597.301 373.262C597.301 373.262 515.524 333.259 459.267 331.902C415.062 330.836 380.081 322.303 358.109 343.099Z" stroke="#2E7D45" stroke-width="20" stroke-linecap="round"/>
</svg>
